<svg xmlns="http://www.w3.org/2000/svg" xmlns:xlink="http://www.w3.org/1999/xlink" viewBox="0 0 1000 1000">
  <defs><style>.cls-1{isolation:isolate;}.cls-2{fill:#cad1d9;}.cls-3{opacity:0.75;mix-blend-mode:multiply;}.cls-4{fill:#a60000;}.cls-5{fill:#db9999;}.cls-6{fill:#fcf7f7;}.cls-7{fill:#f2d9d9;}</style></defs><title>filter-club--bg-solid-round</title><g class="cls-1"><g id="filter-club"><circle id="Background_Round" data-name="Background — Round" class="cls-2" cx="500" cy="500" r="500"/>
  <g id="Lockup"><g id="V60"><path id="paper" class="cls-4" d="M893.84,413.83c-217-217-568.72-217-785.68,0L501,806.67Z"/><path id="seam" class="cls-5" d="M519.87,787.8,501,806.67,108.16,413.83q9.95-9.93,20.27-19.29L519.87,787.8Z"/><path id="frame" class="cls-6" d="M501,251.11c142.16,0,284.37,54.25,392.84,162.72L501,806.67,108.16,413.83C216.66,305.34,358.8,251.11,501,251.11Zm0-26.67A580.4,580.4,0,0,0,89.31,395a26.66,26.66,0,0,0,0,37.72L482.14,825.52a26.68,26.68,0,0,0,37.72,0L912.69,432.69a26.66,26.66,0,0,0,0-37.72A580.52,580.52,0,0,0,501,224.44Z"/></g><g id="Filter_Club" data-name="Filter Club"><g id="Club"><path class="cls-7" d="M467.52,454.2c-4.3-2.09-9.83-2-19-1.21a79.06,79.06,0,0,0-14.21,2.38,38.17,38.17,0,0,0-11.75,5.34,28.56,28.56,0,0,0-7.71,9,53.83,53.83,0,0,0-5.06,13.71l-14.3,65a54.48,54.48,0,0,0-1.3,7.53,24.41,24.41,0,0,0,.11,5.92c.79,5.43,4.57,8.74,9.13,10.25s10.93,1.92,19.08,1.2a78.62,78.62,0,0,0,14.11-2.37,30.35,30.35,0,0,0,10.75-5.21,28.84,28.84,0,0,0,7.71-9,52.27,52.27,0,0,0,5.05-13.7l3.12-13.8-.23,0c.47-2.1.94-4.22,1.42-6.33l-25.87,2.28c-.47,2.1-.93,4.22-1.4,6.33l-3,13.16a9.91,9.91,0,0,1-2.48,4.58c-1.05,1-2.61,1.45-4.87,1.65-3,.26-4.51-.39-4.74-1.94a5.3,5.3,0,0,1,0-1,14.24,14.24,0,0,1,.4-1.78l14.35-64.69c.54-3.7,3-5.75,7.35-6.13,2.91-.26,4.41.39,4.66,2.12a6.87,6.87,0,0,1-.26,2.64q-2.28,10.23-4.54,20.47L470,498.31q2.28-10.15,4.57-20.3C477.16,467.43,474.74,457.72,467.52,454.2Z"/><path class="cls-7" d="M466.45,568.51l26.37-118.78a1.05,1.05,0,0,1,.88-.71l23.93-2.1c.9-.08,1.27.21,1.11.85l-21.06,93.78,23.94-2.1c.9-.08,1.26.47,1.09,1.12l-5.06,23.76a1,1,0,0,1-.88.7l-49.22,4.32C466.65,569.43,466.28,569.16,466.45,568.51Z"/><path class="cls-7" d="M679.57,436.56q-5.49-2.9-16.31-1.95L613.94,439,590,441.06a1.07,1.07,0,0,0-.88.71l-19.31,87.86c-.9,3.75-1.9,6.21-3,7.41a7.47,7.47,0,0,1-5,2.09,7.91,7.91,0,0,1-3.16-.19A2.17,2.17,0,0,1,557.4,537a20.21,20.21,0,0,1,.68-6l19.32-87.87c.17-.64-.2-.92-1.1-.84l-23.94,2.1a1.07,1.07,0,0,0-.88.7l-20,91.38a56.51,56.51,0,0,0-1.26,7.49,25.32,25.32,0,0,0,.1,6q1.17,8.07,8,10.36t19.05,1.23a78.38,78.38,0,0,0,14.12-2.41,31.78,31.78,0,0,0,10.78-5.19,28.72,28.72,0,0,0,7.68-9,53,53,0,0,0,5-13.71l15.12-68.58,24.5-2.12-24.5,2.12,24.5-2.12,4.84-.42q5.79-.51,8.61-.68c1.87-.11,3.06-.17,3.59-.16s.91,0,1.17,0l.77-.07a6.17,6.17,0,0,1,3.08.28,2.62,2.62,0,0,1,1.19,2.17c.06.41-3.15,12.1-3.27,12.61a5.3,5.3,0,0,1-2.28,1.77,10.84,10.84,0,0,1-3,.66l-31.48,2.61a1.07,1.07,0,0,0-.88.71l-16.53,76.83c-.17.65.2.93,1.1.85l36.64-3.22c9.66-.85,17.45-5.7,22.43-10.07s8.37-10.55,10.19-18.56l4-17.15a40.55,40.55,0,0,0,.75-4.85,19.17,19.17,0,0,0-.11-4.16q-1.15-7.91-9.8-9.5,8.25-3.71,12.18-9.63a33.54,33.54,0,0,0,5.15-12.3l2.27-9.94c.35-2,.61-3.88.75-5.56a21.16,21.16,0,0,0-.12-4.86C685.2,443.38,683.25,438.49,679.57,436.56ZM652,508.21q-.32,2.54-1.11,6.53l0-.15a71.71,71.71,0,0,1-2,7.4,16.1,16.1,0,0,1-2.12,4.27,5.62,5.62,0,0,1-2.76,2,17,17,0,0,1-3.87.83l-9.73.85L636.22,503l10.3-.91a13,13,0,0,1,4,.12,2.21,2.21,0,0,1,1.56,2.06A15.39,15.39,0,0,1,652,508.21Z"/></g><g id="Filter"><path class="cls-6" d="M388.41,381.63l29.09-2.45c.53,0,.75.13.65.5l-3,12.31a.64.64,0,0,1-.53.42l-14.49,1.22-2.9,12.86,13.46-1.13c.53-.05.75.12.64.5l-3,12.31a.63.63,0,0,1-.52.41L394,419.74l-6.68,28.76a.63.63,0,0,1-.52.42l-14.15,1.19c-.53.05-.74-.12-.64-.5l15.84-67.56A.63.63,0,0,1,388.41,381.63Z"/><path class="cls-6" d="M409.51,446.46l15.84-67.57a.63.63,0,0,1,.52-.41L440,377.29c.53-.05.74.12.64.5l-15.84,67.56a.63.63,0,0,1-.52.42L410.15,447C409.62,447,409.41,446.83,409.51,446.46Z"/><path class="cls-6" d="M435.8,444,451,376.74a.59.59,0,0,1,.5-.4l13.56-1.14q.76-.06.63.48l-12.13,53.1,13.57-1.14c.51-.05.72.27.62.63l-2.92,13.46a.59.59,0,0,1-.49.39l-27.91,2.35C435.91,444.51,435.7,444.36,435.8,444Z"/><path class="cls-6" d="M474.31,387.39c-.53,0-.74-.13-.64-.51l3-12.31a.63.63,0,0,1,.52-.41l35.14-3c.54-.05.75.12.65.5L510,384a.64.64,0,0,1-.52.42l-10,.84-12.79,54.88a.62.62,0,0,1-.52.41L472,441.75c-.53.05-.74-.12-.64-.5L484,386.57Z"/><path class="cls-6" d="M518.25,370.7l29.09-2.45c.54,0,.75.12.65.5l-3,12.31a.64.64,0,0,1-.53.42L530,382.7l-2.9,12.86,13.46-1.14c.53,0,.75.13.64.51l-3,12.31a.63.63,0,0,1-.52.41l-13.81,1.16-3.65,15.89,14.14-1.19c.54,0,.75.13.65.5l-2.87,12.3a.63.63,0,0,1-.52.42l-29.1,2.45c-.53,0-.74-.12-.64-.5l15.84-67.56A.63.63,0,0,1,518.25,370.7Z"/><path class="cls-6" d="M590.05,373c-.3-3.13-1.82-5.16-4.52-6.11s-6.59-1.19-11.61-.77l-18.19,1.53a.63.63,0,0,0-.55.42L540.3,435.34c-.12.37.09.55.63.51l14.18-1.19a.65.65,0,0,0,.55-.42l6.47-29,4.57.09h0c1,.18,1.48.67,1.56,1.45a3,3,0,0,1,0,1l-4.91,22.89.11-.11a3,3,0,0,0-.21.78,3.4,3.4,0,0,0,0,.64c0,.29.06.6.1.91a1.2,1.2,0,0,0,.3.72c.08.17.28.24.59.22l14.18-1.19c.54,0,.72-.26.52-.69a2.17,2.17,0,0,1-.3-.8,9.27,9.27,0,0,1,.13-2.09c.14-.91.44-2.29.87-4.11l3.19-14.6a22.67,22.67,0,0,0,.7-6.89q-.48-4.87-4.95-5.87a14.39,14.39,0,0,0,3.73-2,13.36,13.36,0,0,0,2.66-2.72,14.22,14.22,0,0,0,1.72-3.06,18.07,18.07,0,0,0,1-3l1.75-8a24.42,24.42,0,0,0,.57-3.16A14.48,14.48,0,0,0,590.05,373Zm-17.14,12.34q-1,4.16-2.07,5.41a4.37,4.37,0,0,1-3,1.41l-2.75,0,2.79-12.56,3.08-.27c1.6-.13,2.47.34,2.56,1.45A16.15,16.15,0,0,1,572.91,385.34Z"/></g></g></g></g></g>
</svg>